<?xml version="1.0" standalone="no"?>
<!DOCTYPE svg PUBLIC "-//W3C//DTD SVG 20010904//EN"
 "http://www.w3.org/TR/2001/REC-SVG-20010904/DTD/svg10.dtd">
<svg version="1.0" xmlns="http://www.w3.org/2000/svg"
 width="920.000000pt" height="302.000000pt" viewBox="0 0 920.000000 302.000000"
 preserveAspectRatio="xMidYMid meet">

<g transform="translate(0.000000,302.000000) scale(0.100000,-0.100000)"
fill="#000000" stroke="none">
<path d="M4535 2925 c-22 -9 -51 -14 -65 -11 -14 2 -43 1 -65 -4 l-40 -8 45
-1 c45 -1 80 -14 64 -23 -5 -3 -22 -8 -39 -12 -36 -9 -75 -33 -75 -46 0 -6 12
-3 28 7 25 17 26 17 13 0 -14 -17 -3 -24 15 -8 5 5 20 12 34 15 23 6 23 6 -3
-9 -32 -19 -30 -33 2 -15 14 7 21 7 21 0 0 -19 -84 -84 -137 -106 -21 -9 -45
-22 -54 -30 -14 -13 -18 -12 -31 8 -8 13 -21 41 -28 62 -12 39 -12 40 21 68
19 16 54 43 78 59 25 16 41 29 35 29 -10 0 -37 -17 -94 -59 -19 -14 -45 -27
-58 -28 -48 -4 -279 -149 -360 -226 -48 -46 -75 -128 -68 -201 11 -108 92
-247 224 -387 75 -80 82 -90 97 -153 8 -38 33 -103 54 -145 l39 -76 6 -165
c10 -255 12 -272 32 -287 15 -11 18 -45 24 -335 5 -258 5 -527 1 -569 -1 -6
-100 -52 -137 -63 -28 -9 -61 -45 -69 -78 -6 -22 -2 -30 21 -45 24 -15 50 -18
180 -19 108 0 157 -4 168 -13 25 -21 162 -34 271 -25 55 4 132 6 170 5 105 -3
115 2 115 49 0 22 4 40 8 40 5 0 12 172 16 382 6 342 14 491 27 502 2 2 16 6
31 10 25 6 27 4 30 -31 3 -35 5 -38 36 -39 18 -1 53 6 77 13 51 17 73 53 81
136 3 28 13 86 21 127 13 60 16 150 17 460 1 416 -3 456 -51 504 -14 14 -91
57 -171 96 -81 39 -150 77 -154 83 -5 8 -8 6 -8 -6 0 -35 -42 -99 -112 -172
-63 -67 -77 -77 -136 -95 -37 -10 -70 -16 -73 -12 -4 4 -10 22 -14 40 -5 25
-3 32 8 32 9 0 69 27 135 60 125 62 172 102 172 146 0 13 4 24 10 24 5 0 7 6
5 13 -2 6 -9 48 -14 92 -8 66 -7 81 5 88 16 9 19 63 3 72 -7 5 -8 32 -4 80 8
83 2 111 -24 118 -11 2 -21 15 -23 27 -1 13 -16 32 -31 44 -25 18 -45 21 -145
24 -86 1 -128 -2 -157 -13z m-18 -42 c2 -6 -3 -13 -12 -16 -10 -5 -15 0 -15
14 0 21 21 22 27 2z m3 -33 c-8 -5 -19 -10 -25 -10 -5 0 -3 5 5 10 8 5 20 10
25 10 6 0 3 -5 -5 -10z m69 -6 c-10 -13 -10 -17 2 -25 18 -12 51 -11 83 1 14
5 26 6 26 1 0 -4 16 -12 35 -18 21 -7 35 -7 35 -2 0 5 -13 12 -30 15 -39 8
-31 20 19 28 64 10 66 7 67 -110 2 -116 11 -139 43 -110 26 23 53 14 49 -16
-2 -17 -9 -23 -25 -22 -13 0 -23 -3 -23 -8 0 -4 4 -8 9 -8 5 0 12 -26 15 -57
4 -32 9 -74 12 -93 4 -26 3 -31 -5 -20 -8 11 -11 4 -11 -32 0 -40 -5 -50 -32
-73 -62 -52 -289 -155 -342 -155 -23 0 -43 12 -83 52 -29 29 -53 48 -53 42 0
-5 5 -15 11 -21 14 -14 -37 -43 -75 -43 -37 0 -100 61 -136 132 -38 76 -38
111 -4 143 15 14 22 25 15 25 -6 0 -11 6 -11 14 0 19 67 72 158 125 39 23 72
48 72 56 0 24 19 27 46 6 15 -12 37 -21 50 -21 20 0 24 -5 24 -29 0 -21 6 -30
23 -35 34 -9 52 -7 72 8 16 12 13 13 -33 8 l-52 -5 0 34 c1 19 7 45 15 59 8
14 14 33 15 43 0 25 -36 57 -65 57 -35 0 -31 19 5 27 21 4 30 11 30 24 0 15 7
19 31 19 28 0 30 -2 18 -16z m-378 -115 c5 -20 18 -48 30 -63 l21 -26 30 25
c16 14 36 25 43 25 7 0 32 16 55 35 46 39 55 42 46 20 -3 -8 -2 -15 3 -15 5 0
11 9 14 20 11 41 79 38 99 -4 9 -20 7 -30 -11 -55 -28 -38 -52 -39 -83 -3 -22
26 -25 27 -41 12 -9 -9 -17 -22 -17 -29 0 -11 -86 -71 -103 -71 -5 0 -7 11 -5
25 6 27 -6 34 -16 10 -9 -24 -24 -17 -52 24 -29 44 -49 116 -37 134 5 8 9 5
11 -8 2 -11 8 -36 13 -56z m-42 39 c0 -13 -3 -17 -6 -11 -3 9 -19 5 -56 -13
-29 -15 -49 -23 -45 -19 7 7 99 63 106 64 1 1 2 -9 1 -21z m-15 -333 c-10 -16
-20 -23 -22 -16 -4 12 28 55 35 47 3 -2 -3 -17 -13 -31z m275 -298 c-14 -32
-20 -32 -84 -10 l-49 16 40 12 c22 6 49 17 59 23 31 17 50 -6 34 -41z m2 -101
c-16 -33 -32 -71 -36 -83 -10 -35 -20 -28 -48 35 -23 50 -50 142 -42 142 1 0
19 -7 38 -15 53 -22 83 -19 91 8 l7 22 10 -24 c7 -19 3 -36 -20 -85z m159 64
c12 -45 16 -46 86 -25 l49 14 -25 -20 c-14 -11 -51 -43 -83 -71 -32 -27 -60
-48 -62 -46 -3 2 -6 38 -7 80 -2 52 1 80 11 91 18 23 19 23 31 -23z m220 -70
c0 -5 -13 -10 -30 -10 -16 0 -30 5 -30 10 0 6 14 10 30 10 17 0 30 -4 30 -10z
m-11 -50 c22 -12 0 -17 -51 -12 -34 3 -48 8 -48 19 0 12 8 13 43 8 23 -4 48
-11 56 -15z m-674 -178 c-5 -6 -25 71 -24 93 0 11 7 -5 14 -35 7 -30 12 -57
10 -58z m1152 -628 c-3 -3 -46 -9 -96 -14 -95 -9 -161 1 -161 23 0 9 26 12
103 9 56 -2 113 1 127 6 19 7 26 6 28 -5 2 -8 2 -17 -1 -19z m-11 -83 c-7 -55
-30 -107 -53 -115 -16 -7 -16 -6 3 39 8 20 13 42 11 48 -2 7 -11 -6 -20 -28
-24 -58 -32 -70 -51 -73 -15 -3 -16 0 -7 16 6 12 11 36 10 54 -1 30 -3 28 -18
-22 -11 -35 -23 -56 -34 -58 -15 -3 -17 6 -17 68 0 40 -4 69 -9 66 -5 -3 -7
-15 -4 -25 3 -13 -2 -23 -17 -31 -32 -17 -41 -1 -34 61 l6 54 120 0 120 0 -6
-54z m-999 -243 c-2 -13 -4 -3 -4 22 0 25 2 35 4 23 2 -13 2 -33 0 -45z m10
-445 c-2 -32 -3 -6 -3 57 0 63 1 89 3 58 2 -32 2 -84 0 -115z"/>
<path d="M4660 2770 c-30 -30 -27 -83 6 -109 35 -28 69 -26 99 4 30 30 32 64
4 99 -26 33 -79 36 -109 6z m90 -10 c26 -26 25 -65 -1 -91 -36 -36 -99 -6 -99
48 0 28 33 63 60 63 11 0 29 -9 40 -20z"/>
<path d="M4710 2720 c0 -5 5 -10 10 -10 6 0 10 5 10 10 0 6 -4 10 -10 10 -5 0
-10 -4 -10 -10z"/>
<path d="M4880 2610 c0 -5 4 -10 9 -10 6 0 13 5 16 10 3 6 -1 10 -9 10 -9 0
-16 -4 -16 -10z"/>
<path d="M4731 2588 c-27 -17 -51 -21 -126 -22 -64 -1 -97 3 -108 13 -11 8
-17 9 -17 3 0 -24 44 -34 134 -30 61 3 102 10 125 22 42 22 66 7 28 -18 -38
-25 -135 -39 -195 -28 -54 10 -74 -2 -23 -13 19 -4 28 -11 25 -19 -4 -10 -26
-12 -94 -8 -88 5 -89 4 -101 -20 -12 -28 1 -68 23 -68 9 0 9 3 0 12 -7 7 -12
25 -12 41 l0 30 83 -7 c257 -21 251 -21 291 9 30 23 36 34 36 64 0 33 -14 62
-29 60 -4 0 -21 -10 -40 -21z m9 -103 c-7 -8 -26 -15 -43 -15 -37 0 -30 10 15
20 18 4 35 8 37 9 2 1 -2 -6 -9 -14z"/>
<path d="M4505 2720 c3 -5 8 -10 11 -10 2 0 4 5 4 10 0 6 -5 10 -11 10 -5 0
-7 -4 -4 -10z"/>
<path d="M4327 2754 c-15 -13 -39 -24 -52 -24 -13 0 -27 -4 -30 -10 -15 -24
56 -9 87 19 40 35 35 49 -5 15z"/>
</g>
</svg>
